<svg width="5000" height="3092" viewBox="0 0 5000 3092" fill="none" xmlns="http://www.w3.org/2000/svg">
<circle cx="2205.42" cy="1610.08" r="321.224" fill="#FFCC3B"/>
<circle cx="4678.78" cy="2156.31" r="321.224" fill="#D9D9D9"/>
<circle cx="628.093" cy="321.224" r="321.224" fill="#FFCC3B"/>
<circle cx="321.224" cy="2770.05" r="321.224" fill="#D9D9D9"/>
<circle cx="3954.57" cy="401.009" r="321.224" fill="#D9D9D9"/>
<path d="M652.286 255.545V401H625.937V281.185H625.084L591.064 302.918V278.77L627.215 255.545H652.286Z" fill="black"/>
<path d="M2155.33 1655V1635.97L2205.83 1586.46C2210.66 1581.59 2214.69 1577.25 2217.91 1573.47C2221.13 1569.68 2223.54 1566.01 2225.15 1562.46C2226.76 1558.91 2227.57 1555.12 2227.57 1551.09C2227.57 1546.5 2226.52 1542.57 2224.44 1539.3C2222.36 1535.99 2219.49 1533.43 2215.85 1531.63C2212.2 1529.83 2208.06 1528.93 2203.42 1528.93C2198.64 1528.93 2194.44 1529.93 2190.85 1531.92C2187.25 1533.86 2184.45 1536.63 2182.47 1540.23C2180.52 1543.83 2179.55 1548.11 2179.55 1553.08H2154.48C2154.48 1543.85 2156.59 1535.82 2160.8 1529.01C2165.02 1522.19 2170.82 1516.91 2178.2 1513.17C2185.64 1509.43 2194.16 1507.56 2203.77 1507.56C2213.53 1507.56 2222.1 1509.38 2229.48 1513.03C2236.87 1516.67 2242.6 1521.67 2246.67 1528.01C2250.79 1534.36 2252.85 1541.6 2252.85 1549.74C2252.85 1555.19 2251.81 1560.54 2249.72 1565.8C2247.64 1571.05 2243.97 1576.87 2238.72 1583.27C2233.51 1589.66 2226.19 1597.4 2216.77 1606.49L2191.7 1631.99V1632.98H2255.05V1655H2155.33Z" fill="black"/>
<path d="M3954.93 447.989C3944.71 447.989 3935.62 446.237 3927.66 442.733C3919.75 439.229 3913.5 434.352 3908.91 428.102C3904.32 421.852 3901.88 414.632 3901.6 406.44H3928.3C3928.54 410.37 3929.84 413.803 3932.21 416.739C3934.57 419.627 3937.72 421.876 3941.65 423.486C3945.58 425.096 3949.99 425.901 3954.86 425.901C3960.07 425.901 3964.69 425.001 3968.71 423.202C3972.74 421.355 3975.89 418.798 3978.16 415.531C3980.43 412.264 3981.54 408.5 3981.5 404.239C3981.54 399.835 3980.41 395.953 3978.09 392.591C3975.77 389.229 3972.41 386.601 3968 384.707C3963.65 382.813 3958.39 381.866 3952.23 381.866H3939.38V361.554H3952.23C3957.3 361.554 3961.73 360.678 3965.52 358.926C3969.35 357.174 3972.36 354.712 3974.54 351.54C3976.71 348.32 3977.78 344.603 3977.73 340.389C3977.78 336.27 3976.86 332.695 3974.96 329.665C3973.12 326.587 3970.49 324.196 3967.08 322.491C3963.72 320.787 3959.76 319.935 3955.22 319.935C3950.77 319.935 3946.65 320.74 3942.86 322.349C3939.07 323.959 3936.02 326.256 3933.7 329.239C3931.38 332.174 3930.15 335.678 3930 339.75H3904.65C3904.84 331.606 3907.18 324.456 3911.68 318.301C3916.23 312.098 3922.29 307.269 3929.86 303.812C3937.44 300.309 3945.94 298.557 3955.36 298.557C3965.07 298.557 3973.49 300.38 3980.64 304.026C3987.84 307.624 3993.4 312.477 3997.33 318.585C4001.26 324.693 4003.23 331.44 4003.23 338.827C4003.28 347.018 4000.86 353.884 3995.98 359.423C3991.16 364.963 3984.81 368.585 3976.95 370.29V371.426C3987.18 372.847 3995.01 376.634 4000.46 382.79C4005.95 388.898 4008.67 396.497 4008.63 405.588C4008.63 413.732 4006.31 421.024 4001.67 427.463C3997.07 433.855 3990.73 438.874 3982.63 442.52C3974.58 446.166 3965.35 447.989 3954.93 447.989Z" fill="black"/>
<path d="M4622.64 2174.01V2153.06L4684.36 2055.55H4701.83V2085.38H4691.18L4649.63 2151.21V2152.35H4735.78V2174.01H4622.64ZM4692.03 2201V2167.62L4692.31 2158.24V2055.55H4717.17V2201H4692.03Z" fill="black"/>
<path d="M320.731 2816.99C311.262 2816.99 302.786 2815.21 295.305 2811.66C287.824 2808.06 281.882 2803.14 277.478 2796.89C273.122 2790.64 270.802 2783.49 270.518 2775.44H296.086C296.56 2781.41 299.14 2786.28 303.828 2790.07C308.515 2793.81 314.15 2795.68 320.731 2795.68C325.892 2795.68 330.485 2794.5 334.51 2792.13C338.534 2789.76 341.707 2786.47 344.027 2782.26C346.347 2778.04 347.483 2773.24 347.436 2767.84C347.483 2762.35 346.323 2757.47 343.956 2753.21C341.588 2748.95 338.345 2745.61 334.226 2743.2C330.106 2740.73 325.371 2739.5 320.021 2739.5C315.665 2739.46 311.38 2740.26 307.166 2741.92C302.952 2743.57 299.614 2745.75 297.152 2748.45L273.359 2744.55L280.959 2669.55H365.334V2691.56H302.763L298.572 2730.13H299.424C302.123 2726.96 305.935 2724.33 310.859 2722.24C315.783 2720.11 321.181 2719.05 327.052 2719.05C335.859 2719.05 343.719 2721.13 350.632 2725.3C357.545 2729.42 362.99 2735.1 366.967 2742.34C370.944 2749.59 372.933 2757.87 372.933 2767.2C372.933 2776.81 370.708 2785.38 366.257 2792.91C361.853 2800.39 355.722 2806.29 347.862 2810.6C340.049 2814.86 331.006 2816.99 320.731 2816.99Z" fill="black"/>
<line x1="786.844" y1="599.944" x2="1917.55" y2="1473.67" stroke="#777777" stroke-width="10"/>
</svg>
